<svg width="30" height="30" viewBox="0 0 30 30" fill="none" xmlns="http://www.w3.org/2000/svg">
<path fill-rule="evenodd" clip-rule="evenodd" d="M2.5 15C2.5 8.0875 8.0875 2.5 15 2.5C21.9125 2.5 27.5 8.0875 27.5 15C27.5 21.9125 21.9125 27.5 15 27.5C8.0875 27.5 2.5 21.9125 2.5 15ZM18.6125 20.375C19.1 20.8625 19.8875 20.8625 20.375 20.375C20.85 19.8875 20.85 19.0875 20.375 18.6125L16.7625 15L20.375 11.3875C20.8625 10.9 20.8625 10.1125 20.375 9.625C19.8875 9.1375 19.1 9.1375 18.6125 9.625L15 13.2375L11.3875 9.625C10.9 9.1375 10.1125 9.1375 9.625 9.625C9.39093 9.85854 9.25939 10.1756 9.25939 10.5062C9.25939 10.8369 9.39093 11.154 9.625 11.3875L13.2375 15L9.625 18.6125C9.39093 18.846 9.25939 19.1631 9.25939 19.4937C9.25939 19.8244 9.39093 20.1415 9.625 20.375C10.1125 20.8625 10.9 20.8625 11.3875 20.375L15 16.7625L18.6125 20.375Z" fill="#1D9BD1"/>
</svg>
